<mxfile host="app.diagrams.net" agent="Mozilla/5.0 (Windows NT 10.0; Win64; x64) AppleWebKit/537.36 (KHTML, like Gecko) Chrome/137.0.0.0 Safari/537.36" version="27.1.6">
  <diagram name="第 1 页" id="7SH-Z2sSEjewP50ZX3P1">
    <mxGraphModel dx="2786" dy="914" grid="1" gridSize="10" guides="1" tooltips="1" connect="1" arrows="1" fold="1" page="1" pageScale="1" pageWidth="827" pageHeight="1169" math="0" shadow="0">
      <root>
        <mxCell id="0" />
        <mxCell id="1" parent="0" />
        <mxCell id="IFC9j8ypwOI6I-tvutlA-2" value="" style="shape=image;verticalLabelPosition=bottom;labelBackgroundColor=default;verticalAlign=top;aspect=fixed;imageAspect=0;image=https://static.vecteezy.com/system/resources/previews/044/795/128/non_2x/technology-server-rack-cartoon-illustration-vector.jpg;" vertex="1" parent="1">
          <mxGeometry x="220.5" y="790" width="110" height="110" as="geometry" />
        </mxCell>
        <mxCell id="IFC9j8ypwOI6I-tvutlA-12" value="" style="shape=image;verticalLabelPosition=bottom;labelBackgroundColor=default;verticalAlign=top;aspect=fixed;imageAspect=0;image=https://docs.checkmk.com/latest/images/influxdb-logo.png;" vertex="1" parent="1">
          <mxGeometry x="209" y="910" width="70" height="70" as="geometry" />
        </mxCell>
        <mxCell id="IFC9j8ypwOI6I-tvutlA-13" value="" style="shape=image;verticalLabelPosition=bottom;labelBackgroundColor=default;verticalAlign=top;aspect=fixed;imageAspect=0;image=https://static.vecteezy.com/system/resources/previews/044/795/128/non_2x/technology-server-rack-cartoon-illustration-vector.jpg;" vertex="1" parent="1">
          <mxGeometry x="-270" y="790" width="110" height="110" as="geometry" />
        </mxCell>
        <mxCell id="IFC9j8ypwOI6I-tvutlA-20" value="" style="shape=image;verticalLabelPosition=bottom;labelBackgroundColor=default;verticalAlign=top;aspect=fixed;imageAspect=0;image=https://clipart-library.com/2023/116-1164670_computer-monitor-desktop-computer-computer-computer-clipart-hd.png;" vertex="1" parent="1">
          <mxGeometry x="-320" y="336.34" width="142" height="101.43" as="geometry" />
        </mxCell>
        <mxCell id="IFC9j8ypwOI6I-tvutlA-27" value="&lt;b&gt;Influx DB&lt;/b&gt;" style="text;html=1;align=center;verticalAlign=middle;whiteSpace=wrap;rounded=0;" vertex="1" parent="1">
          <mxGeometry x="285.5" y="920" width="83.5" height="50" as="geometry" />
        </mxCell>
        <mxCell id="IFC9j8ypwOI6I-tvutlA-32" value="" style="rounded=1;whiteSpace=wrap;html=1;" vertex="1" parent="1">
          <mxGeometry x="560" y="260" width="254" height="310" as="geometry" />
        </mxCell>
        <mxCell id="IFC9j8ypwOI6I-tvutlA-37" value="" style="shape=image;verticalLabelPosition=bottom;labelBackgroundColor=default;verticalAlign=top;aspect=fixed;imageAspect=0;image=https://opensource.com/sites/default/files/lead-images/raspberrypi_cartoon.png;" vertex="1" parent="1">
          <mxGeometry x="620" y="300" width="130" height="73" as="geometry" />
        </mxCell>
        <mxCell id="IFC9j8ypwOI6I-tvutlA-38" value="" style="shape=image;verticalLabelPosition=bottom;labelBackgroundColor=default;verticalAlign=top;aspect=fixed;imageAspect=0;image=https://opensource.com/sites/default/files/lead-images/raspberrypi_cartoon.png;" vertex="1" parent="1">
          <mxGeometry x="620" y="433" width="130" height="73" as="geometry" />
        </mxCell>
        <mxCell id="IFC9j8ypwOI6I-tvutlA-39" value="Raspberry Pi Node" style="text;html=1;align=center;verticalAlign=middle;whiteSpace=wrap;rounded=0;" vertex="1" parent="1">
          <mxGeometry x="660" y="520" width="60" height="30" as="geometry" />
        </mxCell>
        <mxCell id="IFC9j8ypwOI6I-tvutlA-40" value="ESP8266" style="text;html=1;align=center;verticalAlign=middle;whiteSpace=wrap;rounded=0;" vertex="1" parent="1">
          <mxGeometry x="655" y="380" width="60" height="30" as="geometry" />
        </mxCell>
        <mxCell id="IFC9j8ypwOI6I-tvutlA-43" value="" style="rounded=1;whiteSpace=wrap;html=1;" vertex="1" parent="1">
          <mxGeometry x="119" y="280" width="301" height="248.57" as="geometry" />
        </mxCell>
        <mxCell id="IFC9j8ypwOI6I-tvutlA-45" value="" style="shape=image;verticalLabelPosition=bottom;labelBackgroundColor=default;verticalAlign=top;aspect=fixed;imageAspect=0;image=https://static.vecteezy.com/system/resources/previews/044/795/128/non_2x/technology-server-rack-cartoon-illustration-vector.jpg;" vertex="1" parent="1">
          <mxGeometry x="280" y="375.65" width="110" height="110" as="geometry" />
        </mxCell>
        <mxCell id="IFC9j8ypwOI6I-tvutlA-46" value="" style="shape=image;verticalLabelPosition=bottom;labelBackgroundColor=default;verticalAlign=top;aspect=fixed;imageAspect=0;image=https://images.g2crowd.com/uploads/product/image/social_landscape/social_landscape_61274cadc41f592427ca70d7544e66b4/hivemq.png;" vertex="1" parent="1">
          <mxGeometry x="273.75" y="304.34" width="122.5" height="64.31" as="geometry" />
        </mxCell>
        <mxCell id="IFC9j8ypwOI6I-tvutlA-47" value="" style="shape=image;verticalLabelPosition=bottom;labelBackgroundColor=default;verticalAlign=top;aspect=fixed;imageAspect=0;image=https://static.vecteezy.com/system/resources/previews/044/795/128/non_2x/technology-server-rack-cartoon-illustration-vector.jpg;" vertex="1" parent="1">
          <mxGeometry x="170" y="375.65" width="110" height="110" as="geometry" />
        </mxCell>
        <mxCell id="IFC9j8ypwOI6I-tvutlA-50" value="" style="shape=image;verticalLabelPosition=bottom;labelBackgroundColor=default;verticalAlign=top;aspect=fixed;imageAspect=0;image=https://www.citsem.upm.es/images/2019/05/30/logo_gdem.png;" vertex="1" parent="1">
          <mxGeometry x="209" y="304.34" width="32" height="32" as="geometry" />
        </mxCell>
        <mxCell id="IFC9j8ypwOI6I-tvutlA-51" value="&lt;b&gt;CITSEM MQTT SERVER&lt;/b&gt;" style="text;html=1;align=center;verticalAlign=middle;whiteSpace=wrap;rounded=0;" vertex="1" parent="1">
          <mxGeometry x="174.75" y="345.65" width="99" height="30" as="geometry" />
        </mxCell>
        <mxCell id="IFC9j8ypwOI6I-tvutlA-53" value="" style="shape=flexArrow;endArrow=classic;html=1;rounded=0;exitX=0;exitY=0.41;exitDx=0;exitDy=0;exitPerimeter=0;entryX=0.995;entryY=0.433;entryDx=0;entryDy=0;entryPerimeter=0;" edge="1" parent="1" source="IFC9j8ypwOI6I-tvutlA-32" target="IFC9j8ypwOI6I-tvutlA-43">
          <mxGeometry width="50" height="50" relative="1" as="geometry">
            <mxPoint x="430" y="450" as="sourcePoint" />
            <mxPoint x="480" y="400" as="targetPoint" />
          </mxGeometry>
        </mxCell>
        <mxCell id="IFC9j8ypwOI6I-tvutlA-55" value="" style="shape=image;verticalLabelPosition=bottom;labelBackgroundColor=default;verticalAlign=top;aspect=fixed;imageAspect=0;image=data:image/png,iVBORw0KGgoAAAANSUhEUgAAATUAAABJCAYAAABciLEKAAAAAXNSR0IArs4c6QAAAARnQU1BAACxjwv8YQUAAAAJcEhZcwAAFiUAABYlAUlSJPAAADdNSURBVHhe7Z0FoFTF98cPHdLdIC1IS4r1Q7FAbBQkRUo6BQMURAQJAQNEQcUWE7ARUbBFaaS7u/P9z+fcnX139+0DVPyz77lfmHf33js9Z86cOXNmboo4hcQQQwwxJBOkDFxjiCGGGJIFYkwthhhiSFaIMbUYYoghWSHG1GKIIYZkhRhTiyGGGJIVYkwthhhiSFaIMbUYYoghWSHG1GKIIYZkhRhTiyGGGJIVkvWOglOnTgV+hSJFihQh1xhiiCH5IFkyNZgZ/Or48ROybdsOWbdho6RKlUpKFi8mF1yQUdKkSSMpU6YUig5jizG3GGJIPkhWTM0VheuRI0fl4xmfy2tvTpXNm7dISmVqFxYpIrVqVpNLqlWSC4sWkWzZs0q6tGmNwfmlN8fsYoghhqSHZMPU4hnaKTl48LC8/tZ7MvbZFyVzpguEN7xOqXzq8NGj5i9b1qxyRd1acucdjSRH9mySMWMGyZA+g6ROncre+5lcDDHEkHSQLJiaK8LJkyfl0KHDMnLMePng4xmSNk063nqMSb3E6QUWFWc3IidOnFR33Kaml9auLpfXrS3/u/IySZ8hvaRR5pYiRUpjcjEGF0MMSQfJhqnhdu7cLU+Nfk4+/2KWpE2Xxp7Bhph62qJBCo+zUWKPuXmMCn8nTpwwP0xFK1YoJ9V1inrDdfUkV86cklanqClUzEul72CAFm+MwcUQQ1QiSTM1su4YzO49e+Wxx0fIrG/nmp7Mnuu/o8eOS/58uWXb9p3GkE6ePCHHVDrDT+qUqZXHwei8eGB1+Dl27JicUKmPeIsVKSSX1akpNapXlXLlykjWLJmN8Tn4mVuM0UVGYiTmbz/nYoge+NvNtVUkhLfd+W7HJMvU/Nnevn2HPPLYMPnx53mSJk1qLVVKZU9xcvjIEWnfpoW0adVE3/0mvfo9JoULFpAObVvIb7/Plx9/+lVWrVkvJ3Uamjp16qA+zcWdMpUyr1NxxhiR4nLmyCbly10k1117ldSuWU1yZMtm0p4/L7HOGYrwugE826OD0KbNW2Tjpi2SJXMmqVqloknEMUQHaCMcbcYAv3btelm1eq3s2rVHn+l79ZNe2yt37pxSrFhRyZc3jw720cHYkiRTcxUONmzcJD36DrRK9xgK70WOHT8uPbt1kMa3NTJmBVP64cffpFufh6XelXWlR9f2kjlTJtm9e4988dU3MnvOD7Jo8TI5fPiI+cfsw4uLtDQh/Z3SGiqFSnun9NkpKV2qhNx+SwPrkAUL5DPG6BBjbB6o93379ssXX86SBVq/y5Ytl9Vr18nRo8esjnjfuUMbuafp7ZIhffpAqBjOJ1z/OnjosHz2xUwZ/8Krsn3HDo+mjaw92kZw0OZTxElmHZhuvO5qad70TsmXDwZ3/uz6kxxTc9nlunLVGrmreTtJmyatLRIAlPtHVEIbMXSg1L20pqRLF5iKaoMcV0Y3/dMvZdCQUXJt/aukb89OtjrKcxYNjqlE9seCRfLx9M9lzvc/y4EDByR9+nTG4CwOjf9UIH3aN1Wq1DZd3blzp9StW1v69+4ihQsVCDER+a+Depuvddq+Ux8b3Zn+Myg4MPi8NulZlYDLBiXlGM4fGGSg3Z07d0nXXg/J8hWr7RnOD9en/MibJ5eMGTlEShQvdl6ZWpLaJmUVG2Aqv89fJC3bdFGGA0OLr/BUqVPKi8+Pkjp1auh0Jo09o4JpBJjTtddcJZ07tpYZn34hzzz3khw5elQZXzozys2WLYvUqXWJPPZIH5n6xkSZ8tI4ue3mGyVr1iyyV6UNdHH0TNoyLg6J7YRJHJmUMS5auES69XrYjH0B6f1/gvRw1JH77dz5gkt785ZtckgHGnSVp3Q6T2dwjilMHu0MqZjqx3BeQXvRJhitD31qrDE0FtDcc79zAzfOIVv2bJIzZ46QZ+cDSYaS3AhyQhnY7O9+kJ59B9jvUyaheZWeNUsWGT18kFS4+CKdymDOAQPyKtgxNqY4d9x6k7Rt3Uze+3C6vDzlbWNMrgOi18FmrYBOJy/WeLp1bieTJoyWlyeOsTBFChciNo0XIiB+0k4lx7XxV61ZK1/PnhvCZP8tkF+cY2LuGQR54MBB2bFjp+mtIMrzCfK3afNWk3IjETvTFgabGKID0NCCRYvly5mzjXbOlkEx07m0VvWoUCGkGqgI/I5aUNFULtPDb76dK4OfGCUHDx7ijTpvtMiRI7s8qhJWlUoVQiQ0P/BHXDCusmVLKfM5Ka++9q7ky5tbSpa4MMHowz3Ty/Tp0puxbqGC+aVosUKybv0GW0211IkzhcdwU6VMZUpvbN5YsHDx/Fsg/6uVkS5YuNQWQmbNniPTPvnCmPWU19+VBYuXytVXXWZl+LfzkhjY2fHR9M/kz+UrE7QHbYH+5fabG9g0P4bzD2h6zDMTZeOmzTY4h9MNbRa8Bn57fuKkbZvmUrRIoQTt/P+NqNepkT0c0hQdd+Cg4XLw0CGzG6MFUiojyZk9qzw+qL+Uv6hMUFl/uk5s01jF/gMH5OlxL8hH0z5XhthbrqhbW1IrMzqh0s4hTWPv/gOySRt37doN8uu8+bJ69TrZs2+vpE2dRnLrlKlw4YKyYMFi2bV7T6B946SoSnJjRj1uq0H/JiOhDNTJXU1by/pN2/SeDHjM372//daG0q9PV0mtTO18gDwgLXbs0leWRWBqMOX/XVVXBg/oZ9JxDOcP9DH0xfuV5q9reJfpmf3gPZSVWqXqvCoE5FIhYvuOXXLk2FE5hICh5Ddl8rNSrGjhf5XuzwZRzdSoZKqHFcmffpknvfs9qncqSWnfSBGnb/SaNXNmeW7sMJ0WFjSGdrYV6hjbvv375eFHn5Q5c3+SpnfdJqVKFZclS5bLwkVLlFlsluPHjtn0KE/uXHLFZXWkfPkyUqZUCVs5ZRGCcL37P2Z5wrA3pf54ddI4k/z+baYGc7/mhjtM9A9vxjhlcvd3aCWtmt993kZO8rh5y1Zp2qKD1vOBkPogv+jYBjzYSxo1vD4oXcdwfkB74BYsXCKN72krGTKkD6Eb3rGQ006lsdtvaWh9gunpIe2bWB7M+32+NGt6pw1OMaaWCMgW0gcrmWxMHzZirFaqEj4VpjnWtzp1yScTn31KcuqogcTGq7OtUOL30jglW7dtlwa3NpPU2ojoxnJkzy5VKpeXKy6vKxXKl5Xs2bLKBRdcYI1qEpFKiVpxFs+Wrdvk1satVOqI0zx4StbuXdrKPXffbvH/WwwFKWfb9h1yVf1blJAyJih3GmXwgx/tJ/V0+nm+iIy6nfvDL9L7gYG2yukHdUPbzvjwDZvWn88pcgyuv52SN97+QEaNeU7vQ/sS77LrjOjNVydIrpw5Ak81HH70naPzaGjD8zOEnwFUIJV8+MhheWb8JGVoz+jIgGGmVphKQ8dPHJOqlSvKyxNGS+5cOQMd4q8xNHdFqY4OARs0+NUtjW6QD96ZLMOfGCgNb7jGxOksWTLb6hz+YVxUmkuLaWaunN7qHdFiv7Z69dqI+ohziZNaRz//+rtX9sAzB/LJim7Z0qUCT/7/QR5wK1asstE8HNQN0m62rFmsQ0RDZ/ivw7UXUlik9siZI4dk0sEd0Gbm9Dc0CKKlDaOOqVGxVA4K5mFPjZXX33zPKhnpjD/Hjh+VWtWryfAhAySbSlAA/2dbocTvrlhHPzZkpLz34Qy58oq6ZjldskQxE7398QUbMND5/Onx7NI6NQK6vDht4NSyfOUamxq6tM41iBdJbd7vCzyCCis77/Ply60S3F9fiSKsix+pEwnLOWfP5wads8FWlSZh9OGg/nLkyHZGlYHLD2ky3fHnB8cz3jm/fxX++COV2Tme896V/WzTcv5c/OSXq3vu4sLxzj1PDM6vFxf5jZTX0HaKFKd7jmP24fwsWbZc4468es9pNm5BB9UQjlCu/qMFUTX9dJVM4w58fIR88ulXtlKp1acvOfTxuOlf+vXuHBxNTtchwuHiJ8z6DZtk0BMj5XudHg0b8rBONevIfR16mhJ06KCHNP7UxrBOB1d16NUeHDBEJUvvWCP2h06eOFbynyPLapeOH5xG0rlHP2VsCxOkAZFdf+3/5KF+PWzl1lURsbjacvUWKW6IeuXqNbJh/UbZvWdfMFD6dGmlYIH8UrJkcR2xM3oPAwhvB/KALrTfw4/L7O++D47mgDSRjMvr1P7ZMU9KxgyhehiXJ67u+bYdO2TVqrWyZcs2k1IB5UZhXUIHogL589kzh/D8+BEpfuoTmti8ZYuV2d9R8YJEiQ1WQU0n3BbLxeOeufj9IL41azfIuvXrJXfuXLao5fwRDiaF5H1J1UpG2w6R4gLspNm4cYupPxiMHahX6I88FipUwFQziYG4jx49qnkjDWWUygjrN2hsKphwUNd33NpQOnVoHZYnLApOmQrkXND6uUDUMTUqeOWq1XJfx54mrTEWWA7VNbzxGunbE4YWP7r7iet0IG5XVHYiPDjgCSWy9fLk4Iek7qW1dNQ5JeMnvirvvz9NZnz0hi0CnKmRXJzrN2yU2+6+D1Wb5YcO3Lfn/Zrfa9UXhopnl8fEQIeAcIePHCfvfTDD25OqRbFN9/o+vA7IE8Sdwm/Qqv6Jp+2998i9LZuahOTyT3gGjKXLVsg7730sX878xuoe/0bwlIs49E+qFKkkrdbNjdfVkztuu0nKlC4ZsS0Iy6owBtLs7/TXAWkycN3T5Hbp0vE+q2vC+vNDeNvC9vW3MuW1d43Z8IzOrx4CMXmdmBU5Vp0p2xWX1bapN3H48wOI24G4Nmm+vlGGO/WDabJu3SalAZVulKG7XSN+WH2qo21hOpUqlpPL6taWcmVKGVPNkjlzMD3ihqFP/+RLWbR4iSxeulzWrPP2GJOHXt07SpPGt5o/6nn2t9/LmGcnElDefuNFM+Ymrvj8ximjOSlLlvxp25amabyoTQhPfuNCi6ltpA9SYI6U0qb4VatUsHopVbKEFL+wqNU3YJGsXafesmL5KqtT2gizKejeX3fkgry4OnDgOXfFihaSSRPGBPN9vhEdrNUHmAuNHFzR0/9UZqmSFxoxuFUyKu9sK5B4cBDrho2bpU//x3SE2y5PjxgcmDp6eqkqlcrLxs1bjKnGE1TicOkzKqZNEz8NPHrsmIrxKyVOie5cNDJxHLFVpg3WqekcXKmXSMA/ZTV/zql/FPNltRPSGVydgO07dprU2vzezvL5l18bYRMHHZi6wSSE36lS6mCihA9DomM1a91ZPpr2mbUVCK8z9nzSaSNlE3OUihdflKADWVk1zA8//io3NGoio55+XrZu22bv8MtiEflxjnyRLraDDw8cKh0697V0Ka8/P+43VxjCxEmvScPbmtlBouvXb9Ln2lb6z8ocwfGc9AnPqu1v8xbI2Gcm2uD7wotT7LnfLVqyTIYMGy0zPpspq9esszYALh7y8M3suVZGVt937totJwNh9Y+1EbDN5Os2yv1dHpBWbbsqA55uYQHxpNLBKTyvHLUFgyIuzJa+m/ujPDFsjNzdrK28+c77QUns8KEjWvaNRiukRztS//72ANzhiM8YacBB37RV/Wv+FyJdnm9EHVMLgiOBuAQq+LBOD7zdA/HPzgZGJMoZCbNZR2b2IEIoz40ZKlUrVwg2BgRS/MJi1nqcHuGJ5GcHpk9VKlfUTk+3wKwjhSxcvFSOHUdH4jGQfwq2c8GQHdG5OkisLvz+nMuaNauU02mPYwRgl3amPv0eVQnga/XjWYYDF4Z6iXfeM+Dpf07J0OFjZeasb+2Zg0f8nsR96DBG0glBHgoWLKC/4uuGcDDe6Z98YfsOaScvnfjpHXnw58meB8IyLaXeu/V+xBizKyPgNw7m0UYZ0aRX3rCw4fF7afjL7EvH5zwm4OnznPkOjrh4tnyFDmr62zFX9x6sWLlGGVQX6a+zhQMHVeIK0AjxURhyjV/uf/3tD7mnVUeZv3BhwE8848GF10d4XgHqBAZamFeF8hfZuYDEhbnNMR1c/P4JHwl+P35HO1avVjl4Hw2IOqYGQ6ikElPqVCje46ck7B8cNXaC6QDcM9zpAHEBvEHs97bvbsrpUcMeU8mvuOnrAI2BSUiunNnt2wU//jRPCeHMSlvgGvLS2jUsDh3D9FlK2aoEg57mXDQ0+cB84+Chg38rPsJDrIUL5TdlryNcRtlBQ0aaVEFnSYygQXhduHyc0HoaPvIZ65x+8HrlqrU2DQsH6fB9CPRzdApAW8EIMbAmPgYw0ggvr8tHpLbBL/H8Ou8PmfvDz8ZQgPPLLpRnnn9RVimzddOsfwLiJU1sJF0aXh5UUlv8Z4JFEPzgPvz4E5Xe1hstA+fHP+2lHIt1uon0SR0eP3769jkTCMsAzkq+iwcGz7Fafweu7JkyZbRdBHbkV5Tgn7XqvwAqqpgylvTpAkdxB56hB5jx6Vcy7vlJJv47IkoMEAXhIGz2inbu3t8UtEMHPxRohPhprHf1pIdLdNT5RUdHVrv+CipVKKe51TzFER+rtCd0tF51xnyeCa4jLF++Sonb6wTuWWJw7+P9edfLLq1l5eU318VL/zTldCTzE/wg+dhKmp2s4UkcXnzxoJ7pHIsWLbPfwPlDmU2V+OPmOZ0qJ9+FUAmX3zzDz/79++Wll9+wFbwUETow8ZMPpk84l044kETQZzk/gOv8hYvl4+lfBKWdSHBx+submLRNDPnz5TWzIgf8IXmtW7chQRrcx8fp1YMfnncvDAx4/IuvBHarePUTAl884S4xsHLJwQ2A8m3bvl39x6siEgvrf+/3RxxI/hy4mlh9ng9EFVNzFXNBxoySP38+G7kw7tO/cmGxwtKxXUt57Y13ZfKrb3mMTf26CvbDdS70NmzMZScCytwxIwbbPk/P/CI+vXikMKa2cvVaE/0jxZ0YCuTPa/kmDPESfsWqNXof8PA34fKAgTArcOxsYEXLKfr94J6yszLJ4X34xcHMc+XKIZUrXWz+yB+SypAnRysD8aYffrgy1Kxe1fbzdepwrym2Id5wkAM6MauTZMflCca0fPlq10fjofGSR2+qH/+SDvL17DmyZOnyBPkBhMmbN48tLtzfrrW013yVCkz7wusBw+O1ylRQogPeI+18+NGnlk44MwHEDyNlDzErqZUqlLfDC2BaLDyEp8E9Twqp9Jsla2b9FZ9ndnOsXbc+QRjgyuYvo8Wljt0o7unPv/1uJjuWr7D6cGnDoGhbzvKjbpDCGawJ44eLP3PmzLZKSVjT1a3dYLQEXbFi6vz5wT3pZ9ABiFNsnOPkGuKqWaOa6V2jCVG3o4Ds0CiDh46SaTM+1wpN6TE37ThfTn9XJujoNeWNqfLgA13l5obXG8EB1/CEp0SI9h9N/1yGaDzVa1SR4UMekcyZPCNaEIlQIPg/VSK6vtHd8sX0d7TjFQkywMTgqg+dRftOvWXhoqXelErjL1umpLz43CjtRInrKs4EFz8jN3o1Crd12w5p26mX6RnDy0Hd3d+htTS8oX5ImkgvdAI35Wblt3HT+2xVjfw5EJ78N7jhGund/X6TkL06jbPThT//clZImtY2GuaxAX3lhuuutnTAnr17Nf62tgjhz4erZxhly2aNg/VL2ZhqMQi5KSmw8mt67Op44bkRdnKxA/qmLj0eDJp4OFCeIoULCyerUGbi4NTW1u26mZI9UttTL03vulVuanCdHUqAsl1fyN69+6Rj1wdMzwr8YQl36803So8u7YO2jZRtj4a5vN5NKhmd2U6Q+qYOSPPO2xtJi3vutPJzjNUPP/0a8BUPqw8Fx8uz2lu4YEGjaZ6S1wceGmQ6u/B8kk6DG66W/n26a17TmbTKoQycGUie163fqGEHh9Q9ICxxPdyvh1xUtrRWgJc+CTLNLlAgrxnkhoc7n/h7Pe1fBJVIJ6hc8WJt7IAtmj7nBIxdu3dL105t7Uw0VnO+nPmtMRNAo+EIj7J52owvZNCQEVK7VnV5evhgW3Kn8S0+X4M78Ix0MVFA78BhkkxfiPNMIM00qVJL6ZIljLjAqVMnzTrb6U3Uy9+Cyy976rJny2YGxxDQdpXcIpUDXSD5YEWWkZuR2EZjDWc2f4GMLPtzhZmG+BkaIE6ItXWLJtZRScttD6PThHkPSBaav/QZglIGaWDYzNQ1PI+8Y2qONOTywvWgMht0SJGYP1J5kztvMRsxGIAxQo33gJ3UkhBMpznSyKVNGzLNZnobKT9ILdhftWl9j23Zoq4whcBEIU3aNDaNJl/+sBZOGQMfyHb6JEoDg2DfsKuZSCAseSJO6reRMtK3X5sobVo1tTbar3WB2VFitFfjkioy8slH5eJyF6lkmUOyazt7W/kyBqer4aBO2IVD3fGaK3aULHIULVrYVkndqqgflBkprtxFpW2QL1n8Qs9puNKlils9RWqz84moY2qugqprw6FzoYGYFkBcjPo0+qMP99b3VeWhR4fKvD8WejoYrXyaku8SsAuBj7Dc1OBaGTnsUcmgDIF4IzV2OOjkdZQR/q6i//GzUKKSrhG7/q9WrZItqRs0KRYOmDZ6neHMaZ8O5N8xIEwcnMQVDs6YY28eCy50GC9c6KoY9TBz1ndG6OEgXJFC+Uz5TQeFMaHL+27Oj/K71vVJZW4h0CzxOUEI3CunV1Js95j+e0NSPMgHZ92VKF5U/dMmXidfo9NF7ziphCCG6pdUNqmQtmag4Ly4Ka+/Y/f+duU3U2oO+3QdGIckwv7ccL/kB6bf8Mb6Nr2OryfPD4eDwtDDwwGYDmoS0rGy63MY3a+/zrf3keDSpJIuLl9WXnlpnM46utm+Snuu4KDR8AMAAGFps7sb36Ltn8aYaapUAfpTcG7dEW0rF48feKlcqYL6j6cFrrQ3v//UAZg8+ctp0HvKmDsXWwEDpj0+5+KKJkQdUwNU7AXKiPLnz2O/rcqUsFgooOaRWp4aOsCssrvq9INvCzDKoDcZP/EVM2Rsd18zGajMz6YFhFdEauxI4AwyGpnRCyRo6Agg7soVyuvIdYGXZ2voOFm+crXn4RwBXd1qnUohxfrzxW9cwXz5VErx9uclBvL2y7w/lEF5q4N+YPdUp3ZNk442bdpqZ6G169xbej4wwAaM8DpED1Tx4rJ2DBPxkgc6ClIXCwxhPM1uM2RML0WLFNZOQYcg7ylsUcWOlLJ6iwfpob8ppNNOVmt/mzdfho0cZydJMKCFdyp+p0uTVq753+WekbK2AXuIV6xcFUgvNH4Yd6WK5U0Pxzv/exjU2jV8+yKUBpwfpowwxHCJau36DZaWPwzgnvZDSmWwHT9uuFxUppQ9d3FSnlmz56q/hFIuYGCroQO6v9yEJylOy4AJhwN/CAjMQBLEqffoHtdoOcNXMC1evebNk9uYaKT8RCOikqlB+ojSKJMhGKoWvQmSAhVLA0JQ40YNsRNqu/d+WCa9/IYMeOxJeeudD6VHt/bS/r4WRqiOYM6mQZwfPqiyddMmna6EmikkBsuTXmGgKOSZzgBG1VnfzDmrtM8WxI3OxOmu/KCsF15YVIk3S6JpUp+sVh4+eFgDBB76wHsU1Lfc2Uoa3dFcHho4VBbroOFGZgfSQoKBKXTp3C7wNB4cYRNJEtSMSfas2UzStHrTeJA2OKsOBXskYLjarc8j0uDmptKyTWeZ+v50k+rIj7+cxIVkee01V3oSVCC/SIyYBEWqE9QXDEZBaSsA4oLpL12+Qu8i1yWDLu3tDwcj37h5c8S84a66sq689MJo25bnt5HEL+/B3B9/MoYaDvwVKVwgqL8LRZzs3rPHri4ewG/Cod+jjOHgPQIBK+GR3kMPpBlNJhtnQpQyNa8hypQubpWqLMlW2JhyoN9g0QBCY+SZNOFpZXBZ5PkXXpXv5v4ktWteIo1vu0nDh3ZA/zVxeISFyUcqHe1//RXTjrOz40F/CiPmAyLkmX5Ah1/65wqTes4FyBvSKPoW4g8nbEeACQnegys/K4O26BAB5JkDHZnq0zGDKoAIHZRFhL69O8vFWmY/YBQLFi3x6iEBUkiVKhU0vsCtgjpevHSZtXE4iIP42CLElSOgHHMNLafHYKtWrST9H+hundDlk1Nc0dlFAgeClihxoabjpw3vNyvEmIGE6x2JE+RXqZjjq10+eA4DhkEjqYWDYBeXv0iyZclqYZzzgzKyfcul4cA9cVa4uHzEd0zJbbCzugmNE+mQ02Zg8v70XDzUPztWgP89vxEm0J+FM/1oRlQyNVd5lSuiA/AImFH8sDbchg2b7R4vMD6me9fU48ywODutlm0+bTr0kI+nf2p6FJgAjeekBn6HE4WDazPseWpWryJLlv2phH2Wph2B/HjTCb1XR7ht27abriO00/x9oKxnShueJ+qMR9WrV41oeuGAPwx5YRaRysV7HAzCfw/wjyMshrNjVVK+5aYbrNzA+d2/74D5CYf3LM72S7o4AR1569btgbtQuDhdft29g8sPRWly163yzKgnzLSGPJk/fb5q1To70dUfDnDPYgD6w1QhZgmeP4ynF/yxWP0lnOJSP2VLlwhKWy4fKPmRssiPH4RRH1K8WBFjkuF5cdi9a49Jli4PfpAPtpZ5v0PfH9EwK5QuvHIHHgYAUytfjlOh/WX08kxe2ciPH+794J5pJ2Yu4e+iGVHN1LJmyyLFihS23zyjs/IJO3+DwvSOHDlmph2cosrR0BdkyChPPjVO6tdvKC3u7STPTZgsK1atNh0Z0zeIzzqCMhoaK7zBmBqxWfk3nYY5vdrZgHj46At2YuQxTrOJ4pYOG06EfxXETRyeFXiobZnLP5IOe2SRUhJLD7+Llyw7q5EXv87pnUkumFQ82LebTH5hjFTUaZublhCXy4c3DSLu0Pi99DADyB/0C2CCTIHOlB/gzxNtCINg9fC9N1+STu1bm74VuPywV3Xt+vUmcYQDBoCNFlNIN3gCC6fhGUAOHz2ivwMvfGCQrFzZ+x4G7wkDY+BzgB6TDaUp7qFfFnHC3/mxd98+k+zD0yQIElXBgvkDT0LByi6MOxIw22FVX2tN70IjhjkvXbpc8+zaORTYOWLbeTZtEy2I0umnh+xZs1on9baPeMvffyxgudwDjYD5xk+//Cb1rrzMvuV54w3XyPChA6zTjRw93JTYb0/9SJo0vU+ate4kg4eMtM3SiPiskrl4QgkxhVSoUE7Wr11jJ0WA8Abn3jl/WDpRmrSBjq7PWLX17I0SEsxfBWnAIFHEu/SAI7hMKqGwE+N0BEi4RYuXJpiKAN7hKA/OSWvoLVvc01hemjBaJjw3QhrcUN+2m6VVhmYGo2HxbNCRHxVBpGwww+RUB38YprqJTfP9eYJpABjJVVdcKo8+3MdMIXr16GgLFe4EYH/chGE3hof4OnPx5s+f15NuAs8deAeDQTqKBJgpCxielOqFhtEtWYoOLmFbk6XChQqaUXR4fQHSA9jTBX6GwZtiFtE4nF8H7jGk9QaTUJAWR0aVLFFUOJAgHNQrZ6glNsXOnTOn7RmOlOdoRVQzNXQ2ZXSqgpEpjUoDrFq92pTE/AacfYWOqGaNKjbtQHLARqmkMsNrr75SCb6zTJn0rAx5/GGpUa2K/KrSF6d03N+tnwx4bJhMff9j2yh+6PBhH7Gwg0GnCWnSWdw8d450XdpcWbHbsXOX/PzLPHntzam2l5Jpi/pWUtfOghJ8DYQakVLPGoSng5IfmHs4kZEXzoLztpdFhivDZp0Okz8/eE6cxM2Xs9hN0LXTffL82GEyecLT0vbeZlKtaiXbEuT/8lOkcv3yW+StVwAewWnBDvhZuHiJ6aLC/bu4vUWjItKk8S0yaEBfZWQv2Mo2Z8ahK3LTTeffXYmPqdy69ZsCcYfGT31WvLhcyKKLCwtDZ+DzS3AO+MmUKZMtVvnzTBg28YeHwT/RMmVHJxheTgf8MTvgGu6He4xcsT/0w/nFOPjQodB9tu4d0itH37vVZvcOIBRAu+E0xW+ECT7OzSCSlBC1TI1KhVCxf/KO8FGGoh0FSWXt+o3BRuGECL4twB40QDjnCM9KEdtI6iuD69m9g3VQPlZMp125ep08O+Flua99D3lowFB574Pptrkbi3CmZ/ny5DFFP6YEEOxhZXy79+w1Rf2nn8+UV157R8M9IW3adZe+yihHj53gjdRxmr46chh34pSZL5wLMP1bZVuvvLI7cA9Tg+EkZr8G8IM+bYdOYSOtTFLmVs3vktdfflaGDXlEWja7y+wF7WiltOlMQgQwCo73wfnh8jVXJWEn5flBe1xUpnRwFwj+aSe+Y+BWjP3AP/ouTB8mPDNCundpr4ysnlnRw8jcah3lYiDhOCmXB644zFCOHYu8KII+iU7rapN4XFwo3dndoDF5L30g3qxZYGpsj4ovN3TCNq8Eg47+Jl4GysRWEV0c8+YtiJSk6cPKlCkZHFBc+XDojdmSR5L+dN1vvrkBY6I+/eA99cNpHSH5DYCBBnMXps0RXkctolpSA3ny5JZcJrJzAkac2R7ZeWf6jo4zY8aXctmlNUI2FTvQUDjXmGnTpNEOmt2W1Xspg5uoUyn2g952awNbWR373Et2bhWntb4y5W3T83z62Vfy9Tdz5POvvpHnXnhFej0wUO7t0MN0dm+89b5KjYfl6nqXy31tmpvS2BsNNXfqIAQOMLxOp8XhBPV3QKfBniucALlnVK1WpaJ1KAidTsSUDl2S6zBcd+zYZboX3oeDlTyYBnUefuAfcaEEp7N/PP0z28bzyWczTdpx8QNWVbcpc4m0MEKHrlixXOAuHjCCxJjgpXVq2vYclNVOD0jMHvM5ZIPcz7/8Lk+OGGemPf68ABhvJEt5D5htnDKd3t69+43hc5rLeG3nDp17R9ymBEijuO0kiLfd4krZ2fXirzeD+qd8mApBg+rbex4GTk5me1mkVWDKjlU/YV38TEdhSC9PeVNmfPplAhojnzBub+qZUE3Ae+hXXwSehINj4fMGBo/E/EQfopip0XjK1JRZQdRxcTo90adpUqWV3/9YZEp+pn0//vyrXHJJNZPI/AhvQO5pdK44CJINvmVVcri3ZROZ+PwoefPV8dK3Vydb/n976ofWaZDaOMQPSe7Lr2YLH5/o1a2DmZK8+8ZEGTvqcdsvOFmZIHoJ+hQOJkyGH3uot5QuXTKQi3+GHTt3WpkjQhNlwzp6QhY36OzffveDlcEBPgNzimQDBagfJD0YBspqJACYAkdGo4fs9cCj0rRFO9uXi8nGj7/8ZnVJ5zCncZiu0gxHvTgdiBOGy/a3cIZ68OBBCxsO4i5WpJAxTqRU8oTqYeeuXTYNf3bCZGndrqu5aZ98LstXrkpgDgGjicQwARLjpFfelJFjxssjg56Uth17yt3N28uUt6YGjVgjDUbkn690QUMuLZ7BkFx9OPjfs53JW0m1RyHA3759+2xvqj+8H9TDXk2Db6nSvgwqHNT54uTXra1IOxxsmytZsoSWI/I0mvP0nATuBznImCGjbbVLaohapkY9Y2kO4WAHdfhw4DA7zTGbxgHnnqVLl0Y7SrmgyO8ciNTIwPmBCXmSVQrrzHnz5LJN2a9OekanYM/bh405gqhtm2by0dRXjIkNf+IRaXB9fSlSBMV0Bjt3/p5W9+tovy8whfI+vqJkLE8OfliuuKJORKL5qyCPKJFZyYpULjofX2Uf+uTT0rptd7mlcStjxt7KlietxYeK3Gk40JEdGRjfvjP1YxkwaJi0aNNZGt7aTDp37yc//fybSjaUz5MG582bb0wmCI3WzsyPcGwTeYYxoVfSO++hHxE6MvtnJ095y47cZro/7vmX7KTZ2+++V25t3NLKy5TTNo5rcMrJsVF+pnC6ujdGpAyCQyk5bRnTBtNJanA3AEYC8de8pGpAgvHuaXss+l3dOLg4cubMaef1nQ7UT6RpOIBpvTt1mjS/t5MdGsmpvRwwwOIAyUVivgAJPtLiAmBwwz4wIjmof85KY2aTWD1EK6JYUoMgvJUubGxgElQuz1C8Hz12VCWnWVK5ckWdnuYKvPvrlU8YCAIG58JDACizWe6/pdH10qLpnbbROd5cgA6hnfqPhdL2/p4mQdh0y4jDO/vtyccfkbo6dSJu4vs7eQsHm5UjbW0ifjrTnB9+lhna+VetXqPMWCWtI0dk9pwfAr48wAC8zw0mBLqyDz6aYcdGM53jRA63UAKDd3XkysK0jumPA++3KlOLbHiKScgx6yRUlL8+cmSj4yQMg95v48bN0rXnQ9J/wBCdZr2tU9U/bfrMwAFTccwHx6EHSO6kBUgCk4RIp2Xg3zEC8uuPh3CJgbhZZSVOP82g7126bLn9DgfZgaGxpYowp4WX9QQwGtV8blRJlN0RSJ9muqPvXB7CwXNWudFLQx/hoD1+0qk7K/bhoJzZc2TTGdD5/zjxX0VUMzVAhUKYbgRkdMVO64/5i+WTz7+W+vWusA3S5wLxjZfCpnlr16yTS2tVDypnHSCo+QsWm/4NPRfhCAnDyayj26BHestll9YMdm7Xef4pEiMuS18ddeQ6OmWgM/G1KSQA6o73rBYikYYTOeEJh2RMh4Uxx8cVn4YDP6kH9I3uOW3DVjamOn6/gHv0dOwCCUe9epdrugk7HWHIJ9ITDn0U9zz3x+9NfD3/3875MVheJP0LNE32WjppNRwuLnNWZ/F+IvlH8mPVE2Nd/3umuahFXFx+YN7CoOgku8TAKm/6iFug4hHMq8+BSHnlCWmWKF5Mrwnrl0EPRuzi8IP4LqtTS9KpUBEp7mhGVDM1V9nY9sQTpmfxz7n6XOtfc5WkDaymnQvQgCTLqRTpdUQuVqxI4I0H9Bo//TJPWrbtAoUHnupzzVve3Lll+NCBdtyRy3skgvk7gKzYvsXIezZE5srBtjKU1wApAd3jlZfVsWmJZ/93dnBpcqUOmIbydSIWXdxzyorNU6Qyw+AxTPZW0uLrhnCNGlwb1OWdLQgXdJoXdIUZlSm0bH6X0QVxkwyMsHWLu0y6Cgnjcw4o6Dn1I2uWLGY+EQ78UmfQY+owaRS9INvLIoFycf6ZW/WNBPKLJMeR665eTgf3noUO2iO8LAAGzOGq4VE5v9u374yoi+Mdea5Y4SIb5JIaopqpOUCQnCFF4wGVKUz3wHK/icc8C2uYfwIa9M2339eRqoZJiS5upLI53/+sU85epkR16SKxwNDGjHxcKpQvG5SCzmWeiAkle9061TV/CQk4HPhBZ8JIi97IETKSV4d2LTW/OW2/anw88fE5vw78pk5gHEx5MPOY8MxTZmrBeWLOD6YQu3bvtXvK7ndIDGVKlQyJ1wHp8e47b7F6c++5RvLrwDvqnSkqxsEd27aSj999RZo3uSNY7/ihvLVqXCIPPdDdzklDRwrtEJYrdUS5cEWLFpI+3TvKxOdHJnrSCTRYpxZfIAtd+aSOqSO3yuh3gD2f3u6DyDThnvfp0TlRPx7i64c8F8iXRwYP7Kd0mtvK6tJ0jq+HMb0Mj5O77dt32ApqOPDL9J6Tf12cSQlJgqlx2kbNGlWtIangOO2NjpghIoiJd879U7BX84/5C00KcXZfdNiPpn1qZgMwNG9TvUfkdMoXx48yezQ3xfg3CAEJpH/f7jrqV1EGe8Q6phXXnCdBOZs6vpQ1aEAfef2V8VKqFKtfHnFSP5i/vPziOLnyykutk3NunItHa9Dzp3XqVhthjJxnBmP44J2XZfTwx2yllfwQL4CJcpruutVrTHnNFiNW6swFVvUY+f1w+aHOkLAwqOVcMaQHrx31vefV7r3yHbHN10ggjW9vJK9PftaMq1s2b2xG106yIG7yRjgYcb2r6sq7r0+UcaOfkLvvuFk4GfimG6+VO25rKE8Mekg+m/aWvPzCWDt9FnqiHiMBRlK2jNZnmKS2efM22aPlZLU8WG5z+0xXyZT1bFC+XGkZ+FAvyzP1by1idcFP9JInrC75fme/Pl2t7Awyp04ctZXq8LT5kFCkxRIkzt363nTBEQADdhJvUkPUHecdDrIHkfFtxpvvbGWrneQYWzDMJq66vI51zmraiTHRgBiAvzHOtmFIB7987WfgoOHygY78bG3hS0kvvDTFjHPpWPghXxB43do1pf8DXSVXTp2SpE6oSzqXIH+4g8pgWWnDMBjzBh2HrU7y5cklBQNf5cauCz0UujHy5M8XecexGwKl89q162zl7+jR48JXnNAXof/C+JhdClmyZDJzhDQqnTgjTi+60DjR0fAdyUhACsP+jQMIwuvI1TtSA4shmGVgjweTwADUzjrTNPOodMnqKduTYH4Z0mcI6v7OVO+kAWg/mIy7JxwDl5OieM6HerBVtMNHzVc8kOzef3uS0YWjNcrOh4H5enwkUHbOg4NJnA7EA2Dc27bttK/kY5NJu1AHqDuKaPuihuDbBEyRKT952rJlq9W/H5SHASx+O5cH0mGQHjH6WZn6wQyjWwfeEY4Z0Ifvvmwn6vrDJgUkCaaGYwRs0ryD14mNgHFknZE4rXbkbGZzVrtmNald6xI7ZthJEq6IhPPCRgYEjf9723U3RjZep1j4Hvv8SzLtky90NHTmFHxw94jtNe3draPtg/Q6euJxnwu4cnBBUoSYg4aa+gy9lVOkg/CrH65eAeX24lKC5oH+gVFC7H6CJp7EyhifN+K1n/Gw+LzwdptIftwVFywbjwPh+W4Au0fcg9PFdzq4tPwgDp5TF6++/o6MGjM+pC4BOkkWUT6e+qotePjrxgubMF6DRmH0Ebg9HVzeXF6oB37zD4mLPOGAP2+eH37YbRButdX5dfEzeHTs0kcHj9UJ4iHdK+rWkiGDHjTVj/99UkDUs2AqFMdJuGzh8aZc3mjiuZRy/MRxHam2y1ezZsugJ0ZJ05YdbdsSkhVGoojrLhwNhnON68A9jqnTt3N+sIMGkRxGj5tgFvRIDEadCp6z77Bvj05Bhvb/AVdmCBXCRsJwK4MwcO55Tn6sEwX8R4IXj+cPSYcRn1Vk4nESHs+dHxdfYnBp4c9jrj7nC59YHKHhfWUL5sdb/bSvj2ucZ4rPtSft7to8tN29sM7x2PyrH/bGmg9f3C4cW46Q0MLT5T5BuZ0jrwF/Z4LLD+Vz7UIdsNuDOkCXxzt/+Z1/0glP272Ph1dGJGGk80hAtVPvf5dbWkkRqQYqAr+jGjSaHVanDbV67QabGkCJRmz6H2Wo19gYeR6z00e/mDlbvvpqth0tbceyaOMixuMnvqEdkXsSCyYBGHr27nG/PD3uBfly5jf6Rv3jQcPQ4I0a1JceXTvYh1As3QSE8/8DknRE+0/T98dzLuL7pyD5f5ofaGPWt3Nlx/adcvTIUWtp7Mn4jgMgTvx4DMu7ovB/cfJreuWEjtA0YZC1a1STq66oawzn7+Tpr8KVPd4FXvwNQN/EwQERGC7PX8RZcaF1y2+YZ/cu7RJIo0kFUT/9dHANwhUFKEaDn3z2lRmXpmeztY7gnOvOFAB/FIu28hosTqeTh435lCldws6v5zhl9E5sjEafApGib8EKf/Z3cyV79hy2H5T0TNEaiJMtUT27trcRFCTFRv8vgHZjwYHPHdKO6IgwQi1cqJAp+jnttlCB/MH2Qzqk/V9+9S0b1MLPd6PtWTx4oHdnueuOm02STEpw3Rw98KzZc203AjMOP/3iB1e1SkUZM+JxMzb310FSQZJhaq7C/eBu/779wif8+UboV19/JwcPHwouq0PYjhk6xz3GmSB37hx2/PeN119th+gdUsbXuFk7HcmP63QzfjRHGjt1Ms6mv61a3GW2Vu5dDNEJaIXdEPe07GjHSrm2h2ZYDMG2ze7sf5xkUOmE02MZ4ED4YEV86LdeeWmslCtbOskyNRaYWrfvZqfNcBaeH84P5+ZRRqd+SGpIMkzNwWXXn23HXFDeYwD540+/2SfgVq1eZ1MGpCoU6wQhnLVlHETufXQi7tRJW+0jxmNK2MGG1GhpeO7ZxM5n1GhohxhTi0442vj8i1kyYPBwk06Ae+5vN37FUxK/IrcpYfgK+ntvvmgMLam1PWXH9eo7QGZ+M1dpOnTayTuYPsezP9C7izH3pErfSY6p+UHWqXiu/mLwjFF1zdp19hHbb1Tc5jN6+w4cMAaF4hnQiNCwNq/dEwXtyMgtcUh7cWbe0L9PV7numqtsigKSamP/V+CpIEQ6d+9vxwe5+78L6ARDXc7hw74NOkiKNEAfYUo+bMQ4+XDap1YGfzkwl3l10jgzjeJpUqXzJM3UIsEVhyurPDAsfu/Zu8f2JX435yf5/sdf7CPD+EyHPk5HLY+R0Yh61cbE+JQtSRiEYoRrdkKKGEOLftg0U9u8SYsOtgEeaR2jXAY02o93rh0dvfgRbGN9h5kLi0O3NLpBHunfE9KweJIiXL1gp/fs+Jfktbfet+eUJn3GDDJl0jNStLB31HpSpvNkx9T88BcNwgZIcHybcemyFTL3+5/lM52ibNm2zQwc06eHcaXS34clY/oMMvH50baw4K10xRhaUoFrdzaZHzp4SL6d+7PMnPmNrNuwUQezHfaREq8t6bzmNR7ca3CiwCSiUIECcm+rJnZ4plscSsp0EGRsx47Jm29/IM88P0npO5VMfuFpO8TSMf6kjGTN1PygmP6i0rjo09ChrVu/QRYvWS5vvPO+HNh/UBreeI3c0+QOO66ZBidcUh2d/4tw7ezaHEmLlc2g0wHuz+UrZeHCpWa1jy42SBk6VS1YKL+ULV1KatWsKhkzXmDqCmeblhwGNmgfILH9vmCRFMyfT/LlzatlTB7qlf8MU4sEV3SkOBzbj5h2spSNMtgxsuRAyDGEMjuT2I8fl+Pa7m4fL0BdQbszXXWMLDkOaNQBDoaP6sW2oiUTOv9PMzUHrwpwofqWGDNL3jgd6cfaPukixtQU/iqIEXMMMSRtxJhaDDHEkKwQ037HEEMMyQoxphZDDDEkK8SYWgwxxJCsEGNqMcQQQzKCyP8B0zHqn82qtaQAAAAASUVORK5CYII=;" vertex="1" parent="1">
          <mxGeometry x="115" y="620" width="309" height="73" as="geometry" />
        </mxCell>
        <mxCell id="IFC9j8ypwOI6I-tvutlA-57" value="" style="shape=image;verticalLabelPosition=bottom;labelBackgroundColor=default;verticalAlign=top;aspect=fixed;imageAspect=0;image=https://images.ctfassets.net/o7xu9whrs0u9/4sYuVlC3grWV9xqiALyYr2/a52875856c016db3eb86c1d8adced886/Docker.logo2_.png;" vertex="1" parent="1">
          <mxGeometry x="414" y="606.5" width="115.05" height="100" as="geometry" />
        </mxCell>
        <mxCell id="IFC9j8ypwOI6I-tvutlA-58" value="" style="shape=flexArrow;endArrow=classic;html=1;rounded=0;exitX=0.5;exitY=0;exitDx=0;exitDy=0;" edge="1" parent="1" source="IFC9j8ypwOI6I-tvutlA-55">
          <mxGeometry width="50" height="50" relative="1" as="geometry">
            <mxPoint x="220" y="580" as="sourcePoint" />
            <mxPoint x="270" y="530" as="targetPoint" />
          </mxGeometry>
        </mxCell>
        <mxCell id="IFC9j8ypwOI6I-tvutlA-59" value="" style="shape=flexArrow;endArrow=classic;html=1;rounded=0;" edge="1" parent="1" source="IFC9j8ypwOI6I-tvutlA-55">
          <mxGeometry width="50" height="50" relative="1" as="geometry">
            <mxPoint x="270" y="740" as="sourcePoint" />
            <mxPoint x="270" y="780" as="targetPoint" />
          </mxGeometry>
        </mxCell>
        <mxCell id="IFC9j8ypwOI6I-tvutlA-64" value="" style="shape=image;verticalLabelPosition=bottom;labelBackgroundColor=default;verticalAlign=top;aspect=fixed;imageAspect=0;image=data:image/png,iVBORw0KGgoAAAANSUhEUgAABLAAAAKPCAMAAABKA8O/AAAC9FBMVEUAAADwWCDwWCDwWCLwWiDwWSDwWSDwWSDwWiDwWSDwWSDwWSHwWSHwWSLwWyDwWyDwXCDwXCDwXCDwXCDwWyHwXSDwXSDwXSDwXSLwXx/wZCDzZR7wZSDxZSDvZSHwaCDxaR/xaCDwax3wah/wax/wax/wbR75aCLwbx3wcRzwcxzxdBvxdBvwdBvxcxvwdxnydBvydBzxeRrweRvxehnxfBjyfhjzfhjxfhj0fBnzfxjyghfzgRj1fxjzgxfyhRfzhhbziBT0iBT0hxXzjBP1jRP3jhH1jhL4jxD3kxH3lhD4mA/4lxD4lxD4mhD4mhD4mg/4mRD4mw/4mw/4mxD4nBD4nw/4ng/4oQ34oA32pAz1pA34og34og35pg34pgv4qAz4qAv4pwz4pwz3qwr4qgr4rAn/pxH4rQn4rQn5rwr5sQn4sgj5tQj4uAb4vQX4vwX4vwX5vwX6vgX5vwb4wQT6wAX5wwP5wwT5wwX4xQP5xQL4xQX5xAT7yQLwWiPwWyPwXSLwXCLwXiLxYCHxXyLxYiHxYSHwZCDxZCDxYyDxZSDxZx/xZiDxaB/xaR/yah/yaR/ybB7yax7ybR7ybh7ybxzychzycRzycxvycxzydBvzdRvzdhvzdxrzeBrzehrzeRrzfBnzexnzfRnzfhn0fxj0gBj0gRj0gxf0ghf0hBf0hhX0hRf0hhf0iBX0hxX0iRX1iRX1ihT1ixT1jBT1jRT1jxP1jhP1kRL1kBP1khL1kRP2lBL1kxL2kxL2lRH2lxH2lhH2mRD2mBH2mhD2mxD2nQ72nA72nBD3ng73nQ73oA33nw73oQ33og33pAz3ow33pQz3pA33pgz3pwz4qAv4qgv4qQv4rAr4qwv4rgr4rQr4sAn4rwn4sQn5swf5sgn5tQf5tAf4tAj5tgf5twb5uAb5ugb5uQb5vAb5uwb6vQb6vAb6vgX6vwX6vgb6wAX6wgT6wQX6wwT6xAT6xgP4yAP7xwP7yAP7ygP7ywMWKp4VAAAAf3RSTlMAdMDwUISgqLDI0Njg+DhYaJCYuOgwQGAgSMAYKPAQ1PjieIOmyFAIbLGT0Ni+46Hw+FhAYMXrUIU4MHD4IN3OSJGls3ntvfjQ8EBgnt5QvPhoiOjOgKpY8DgoGHCQEHia+L3ZMOjwCK/OIEjg7kCIfr34UJxsXpDwq8XUOOT42750mAAAJ91JREFUeAHs3WfWskwMgOEAAlJGuuKBw1+Wma1/vb7lUSky430tImRCinwPAACYBADs4JnkLgBwfL2vv2pGAYCD84z+zlSTADg60qs/tTcBgMMqAv03fxQAOKQp1v8x3iwAcDxdrt9KOwGAo7kZ/R7jCQAc9Dn4jWYQADiOPtUfa+8CAEdxbfWnQgGAY/CMfsEfBAAOoNKvtRd5NwCYz/oIc5P3AoAh0QeF8k4A0Gf6sPMsAPA2XatPSAYBgDe5BPqUvBcAeItroE/KRwFwdORXfwouYgUAxCvV4CoAsLMu0JeYqwDA8eIVEQvAAYyt/olXIQAH4hWVdwAHMGW6SNAJAOxi9nWhthcA2EOki2WTbA8AQl2BP8vWAOCmq4hlYwBwN7qOUDYFAH2gaylkQwAwJ7qaYJTtAECt3zjkr0IAKHRVsQDARsZA11XKIQFgIudbphMA2EKkq8snAYD13XUDkQDA6qZct3ASAFhbrJtoBwGAdZ10I7EAwKqGVrdykuMDwIOQP4UA1nfVDVUCAKuZM/3GIdtHAcDTTfkCYGUswaLufngAzrqxfBYAWMNFN1cKAKzB1821kwDAcifdQSgAsFymOwgmAYClSt2FJwCw0Jyr2pViAeDQMykWACpYf8oFABYpdDeFAMASqe4mEQBY4K47uggAvO6sO4oEAF7W657MJADwqkp3VQoAvGgO9FeU3QHQ0/CtUQDgNY3uLBQAeMmge8sEAF7i6e46AYBXJKq8CQHwIvwBk8Zh0c3yFAAo9V1MGnunXnbQX083L6yi+FdNc47rOgxnAcA/wicFSX0bZRvzWISxnxs3nqUAJqMHEDThfZI1zRcvzoz+mOkFAIsaXpVF5ShrmK9hYvQrtQCwTKiHkke3XhYZvcboI8woADifulBWF5O8pgszfdhZAFhlCPSQ0vAiz+rDzNmZRgBdmOhxtdFpkofNN9/VVYIApiJq9ehM4/UPJletPs8McngAhtI3aon065g1RsbNESEAvefrn5yIWV3s5h1qAHPhq42SH8Ws7uzmHWoAXR2otfzbt/lQHzt5hxrAVKZqtyC6yr/NodGF7gKA5GojmTfIX065LhYLAJKr7ZxP8pvhzJFEgOTq+HJvkiLQVXhyGADmW6LuCRLnjiQCmLxcfwq9HAGAIQwUFrwJAfS1UVjwJgTQRUYfgUEAvNW10QfhJgDe6OIrDrp4FMCC7QUIZgHwHmOseM5VAFjyZxCh7A/AEBrF0xrZE4AFy1YQyK4ALFi2gk6+AWDq7jcvrOPGT9M8b4NftXmWps05qkLvdu8medXoK1aYzgHQ38swajKjXzK5H3nF04FrqoziZZH8CkB/8qLU6NNav7p1szzo1uoCSAX4dF0ZpUYXyaKyky91vi4CI8AHG06hH+g6Aj+8ztu+BjEK8JmGos51Zcb3LvJ991wXw0mAzzPfw1Q3EsTF9G16FSnodQeeN5SN0U2Zpuzl306tPgv8JgRGL9FdJN4gfxpifRIYzgH6MNP9mHMxy69uga4EmXwGYPCSd5xs7xt9CpgmBE5ndQAmcR3Qh62CRizAAtdYwb4GwALzLdPDAVuSAfrL3XcXdwGVgtkcwBKRgmOqgCVidQpKcRfgK8iwAEsk6hQU4i4gU1B0ByzRKmhrACwRKGgcBSxh1Cm4iLsABcPPgCVmdQtmcRYwqVPQiruAQcHpZ4CAhXc4C0DAgiUqAQhYsIQn6wIIWKDRHSBgoReAgAXOEgIELDuYPM9Tv4njuK7rKgzDqq7rKI6bJMsDPRBfPhJoHEWQnmuvLK5dP8tPTf3lVIb1OWn13UL5JGA0Byb3o7C8d5M8bx5PXnXODDV3YBP6F7R+5BWXQZabx1MYp4YzqisDjCqCJPKuk6xs7m51YnRXeS/OAljgZ5Kq6GU786WMciLWUgArkvPYu8yyg6GoM91JPoqzgOxjE6vTIHsaTnVOxHoWwJmvtLpP8g5jeQ54Fb4OaPSztFExyBvN1yonYn0N4FR9Xl3kALow1U1lgzgJqPVTpN4oh9F7iW4oncRFQKgfIfF6OZjey4hYzwE8dZ/vDXJIXZjrRvxZ3AMU6rg27OXArrVhufujgKs6rSnk6KYy1S3U4hygU3dl3iBWuESGVTMfDWzwO9/FHoOX6+pu4hrAqIuCqhe7zEWiKzNXcQyQq3uychILXWJdVzCKWwBfXePfxVZ9bXRN+SBOASJ1y/kiNhuqQFeUzHJUAK3u505sN4WBricSlwA3dUfzTXZFyPLkgAA6R9NCXDF5Ab8KHQYasfJCvocsq+3FHUCgDgi8WRwzVUZXkc7iDCBV65lwEgeNZ11FLIcBsHPUH8VRF5/Cu1NAX0N+EofdWl3OXMQRwEmtVk/itDk0ulg+iRuAUS2WXcV5Y8M6PxeAfQ3VLJ/glFPGAmy/pZpf5UNMFWUswO7x52iSz3FJKWMB9h7OaU/yUWbPqNKNBVzUQudBPs2YKBuTgdmobUwon2hZkhX0AjCcs7/8Ip9pTHUBXxwA1GqXZpJX0EYaCsAOv30ZTz7ZJdeXmU4A6/VqkfYqn22K2TQDTn1ZIhuFjDjgUQhaR23gTyIYUxrejw8UsaJZ8Ku50hdlswAUsXbhyVI8C0MBKGLtwBTyN4wZfwqPCxSxgqusgL+FiQAUsbbWdrIKptZLAShibSsf5f9wD/QFwSCA3TI9tryXtVDIigXgdM6Gsl6+B9NZX3ASgJ1Ym0knwQ9U+rx8FsBqLfHKUqWhoQ00NhCvbHEy7PI7CnBONRvkp3AJqLuDPcnEK1t0rT7rKoDNzvQz2KvP9EmpADYriVcWG1L63T8KBqPHE3TyEEy+PqedBLBYo4djrvIgzM0n7ZkBCj2cm+Bhc/zk16AXewFz8As7d5UsKRJGAfiUu0M5xB2IaFYxe8Otovc87gJlmfnfPt8zmu6hYTzQPYbhXbYQjZjezTLEfWgT3sUGkVyn0Cg70HtLrDGIBLNCg3BDzvtLrCWI5NrExoh6V9ADtvEddiCSy47NcQI9ZBjfYQ8iuSaxIUIf9KBR3N4ZRHIdYkOMQY8Kdt9GQ5YosCITJDMX9LDg3D6kJ5CLaBCZ4LkBd3JnUWt7EIl1jEywAj3lMo/aOoNIrl2k3xD0pGsvamsJIrH6iW7p3AU9a9lL2snGIJJrlmi2WIKe9yVpywaRWOtEMw+kMiKzEYjECqxEqzPoNfykHcnnYhF5iUaFdQG9yDZpJR+ASCzXSTRagV5mnLTiuCASa5BpU4xBr+NOs1Y6EIvossh0cS6gFzo6WRtzyEW0SXU5gF5qv0jb6EMwYhMr1WMHerE1A/7To0GqQ+YcQa+2Tdu4Qiwi1/ksHUIKJmkLG8hF5BcanPEG9L1VNEqdAGIRuU6h3MLGO9C+aOEAuYg6hWr1BtqwvVxPIBdRMCsUs1y8CZ2LZlfIRdTPFTvgXehi5Y02EIxolys1wfvQKW9kBZCLyM6VsiFMcNz3Dx1/s/3NaDQabjcD31uvTvbRhVEGeaM+BCPa5gptIYa7PGzGEyvN/6b8Uf6jIv+ZMx1vvZXtmrIaK28yhmBErlUr47iQ4Lja7Ob1j263W93k10us89A7XfR/ulM3+HAhGNGhVsaD6YK9v7PqH93qR1i7Qf8CnVZ1kzUkIzrXatyswPTC6rwoy/KZX7xVdT0fdZbQZls3OEMyoutHrcYa5nIPY6d9YdXYSXTGHVvTj3xXNzhCMiK/UuHrDKY6eufq9azRyoV6+6qBB9GIJpUKX0xtW+2qqq5e7/a1qqa+DdW21f+bQjQi+6N6vzMMFKx2i+q9Zv5Vdaew+n9HNCBip3AJ41wHVllWP7B3Fwmz20AQgOsE/zAbJLPDzLlf8swQOG6WIXtWbks9r78biKtWoucHV5tKYQDehLgXxOoDbJMciqoq1vBrUdwvHlazL555F4M3IR7HgtgZVkkvflGVxYpUdF5tcLp46grehEgKWnfY5BG6xdreFYWfeVjFuXgqA3NC7N6fgPXYqV8KM9y9Y0EplN9zBHteRekOa3ihW5l0T0DP09UTKgVvQiQVpZtcV3/zNyB3Mb8cQhCKKkIxLLHRlQ10loJYXM2rd2BNiNStCCWwwltcmWHgyjpVT/gQgrVNSciHDR5RaY2qK/UFpHblEw6E4CwvCW1hgYtbVqVV9BaEPF3OyyAEY54q6bgpjLveS+vUtX8GnUs5qzmAMSEuJaEQxoWqtFN+BZl7OUul4EuIvKajrjDMiWtbVSr0QORUz7uBLSE8VdOJYNjWrW3mbkEkqmeFYEuIpCb0BqMeh9puTXN3QOKq6jkx2BIiqun4MOqs66a2ndqloBDWc1QKpoRI3YbOBSaFTdtwoM8g4LnNnDOYEiJp6LgpzHncGzZIQlbWzAkgBFP7hsywhzkn3bDRkoSsVDfTqhxCMKU7OicYc1EdLwQh69LNcCEET6eWjg9jwpab3v8BS/PbGQ6EYClo6WQwxDu0DKktFnZrZ1wgBEv3lozyYMbDb3nKPSwrbqdFEIIjT7VkIpjh6JapTr+tE7F8CMFRMtA5w4jv9cDWqDIsKh4mqRRCMLQfyGgY8aU79ANjUYoF3YZpbxCCIT2QCWHCTQ2stYP/M33E6rcQgp/TQOcHGJCogT33S/rOv4MQ/AQ9lfYjM/dVz974m/oKy/mon/IxhODn455MKPeVFZOX9VNcCMGO93lPxsHqvlT9axjHPMVCvM/6KVcIwc2tJ/MhVvfm9q8jfmAhYT8lgRDchCOZAGv7wR1fSP/Rz1iGNzkvIbgR4uORzM9Y2c96fCmD/gHL+GCcEIEZIdLPRyLrN0Lvw/G1/Pane8MiHmr8vw8hBDNfjmRCrCwfX85vKsEiovH//mLXDlTdhKEwAP+vURQZtTWa1lRV2CoI9xnHTFLzsmPsAnh7YZvxZKSc7wlOEjg5f0gDxiKTz2TuCEvOL8h+6bCH+/yJBIzFpZqpKIRVzi9qwB7O87MeUWFMNDMVGfoD1vyivg/YwTA/K8FYVO4zmQIhJWp+XSXR1ZSDsagcNZEfrUBA4qxf2C6pUOonFRiLSqWpVAhJ6tdWwFuqn1zBWFQaTaVEQAf94toDvNXPUzAYi0mqyUwIJ1GaQnutbjIvy6H7rcxv1VnN+n9oe/ga9JMMjEWks0TCpo16z8p/UdW3sp/wKTH1pawb/c6GoZsRnkRjPxrBWESkpSIRTml31Nb5IcOfpYO8BGlY77Sa9j/tAoxFpLZUCgSTtnYv17wX+HvZIa9bG8h8zeBntB+VYCwijSUyZwjmbPdxOU74d1khlQ2jFvBzsR/kYCweqSGynBHM0exB5Sk2u0ultSG3nOCnNGv2Bsbi0RkqecBAaPzVncC77T3L0MvhJXlaNxiLhzRUeoRSGV+NHLGH/tQaWovp4KU2K/YKxuJRGyKtiGZIVMcMe0lyZWi146671YCxeDQLjXBRI1OLF1UK7Kqo3ULIqAQeRLOsCTAWi3ShkiMQufho8gy7G08LpVrAw21ZmxALxrqFShHsxX3xcEtAIqVsWUbCw9uyNiIWjMkHlQRh1I/tLj3IjJVzDyqFVyZ8rBwQC8YqR+OhEMab26w9gtRYOSrNhO1ObmVALBhTjsgNYVzcVpcR1PqrI3IW2KxzKyUiwZjQjkiJIAa3lRSgJ46toyGxWbau6YhIMDY6KiNCEMpt0xQIY6ocja8/2bEPnNdRIA7g/3s4sqTXiDtOz4ss+R5bLrYGTHzR7U015mMIWPM7AXWarznADYlg7NtEQ/cI4jS5qQYE862dCKg283Nqv5RIBGOfJyLnQAXW5KQTCCgvJwKq+EBP+L/DQCIY6yYaqkQI+8lFf0JgBzkROMFV4yfwMRbYeSKyRwj15ECOCG5oJv/kAEeP6T8aJIIxqYjcEcBBrTddvuMdPvXKN93A0aD+ZRqkgbFMETECAVRqvWrAe9xb5d0ejmr1rwZpYOyoaOg61tU3Od4lOyvfZAY3JVdYCWJ7RaRDAIVarRF4H9FFc86j+tcZaWCsVDTMJ9Ab1GrnHG/1Sfk2wono1d+mM9LAWKOJjKB302tVOd5slNqvNv/wzZ+RBsZqTWQAOXHR65gqx9vtWu3XDU4e+m/cEiaD9ZpGD3oHrfQqdYYIDK32qh/gYqf/0SAJjGWahq3ja2eN3CEKP9TaJ1vASav/YhskgbHvhkgBcoNZaUQkssp4dYSL0vytQRIYuxoacwlyn1Yu6ROikZ+NR7b62N3bEklg7GGI7EGuNqt0iEjeGJ9OcJBL85c7EsDY0Bkqx9i62UogJuJs/JlbAQf7hAosxrKyt2QGULvZNeSAuOSV9egBF6ffayx5A2PRy8vezpbI0oNcbdc4ITY/1NYbdcnhQoyHYw7GYice0i6WTg1qO7tGgfgMF+uN+QTGNutYGUtpaaLqCPUlQ4Tuvb8DlzkY26ZdMVPrQO08r3BFlK6zPzcwtkXi1s/kbiCWEYTP8D7N3nCJxTbpWM8BPEDsML9OZohVN3vzCVvDWF7OQRxi+ukPROvnavbkKQUY25brZQnjCGKX5WW1QLx2cvHlAca2VV4toQygtVteNyJmh8WTZyuwHYwd2+W5BCJAa7+8rEHc/GWRE7aCMXF7LqE8JYh1y8t2+JXdOsptE4iiMHz2gcUrqhQ1VQxAYIyNcbfR12wrmjAAdJOVuoFOpTtmLjrfDu7D/XXi9vHyJePzioMguhT2ib4jsM76uiN2jbFCzjgEouqHfaYOYSXWW4Po1VbG54ADIMp6O9lnKhBWZX0NiF92tTLMBeoRJYV9rq8hmk3yDgUaK6SGdkTv5fhsd4T1bfRUQIV+lFFm0I0oN+Oz2R5hdaOnM1RIu1GEy6EaUT/uoEdQ6eipgxJvo4wCihGlw7iHGkGdRz9fD2hRjDIuUIsoubpdtAgqd35MAi0aJ6OGVkRN5w4ZrNp5sQP0eHUiOihFdC7dMYM1OD8V9LgYJ+IGlYgq4w4arBfnpYQmvZMw3qERUW6m3bQIqpy89NAkKScJJoM+RO20oxYhpZOfG1SpJxFvUIfoMR03WM3kpcygSmImCQOI2KuIglVNPtwAZfpJgDMpdCF6zPtqEVI+e8mhTGJmCTmI2Kv/0cZwXgJtXmcBypYlUTsfO1j17OMKdZpZgsmgB1G+qA+WwBCZeuhTzBIqqEFULftrEdKw+Mihz9sioYcWRGfDYP11gj5ZuQgooQTRe7kcPljFcb+2XyQ0UIHoUi7HD9Z18TBAo9MioYYGRGm3RSFwsDYPNVQqNgEFFCD6KLY41AjJq8oVVGo3ASYFUfzu27pFod8/WCeolGwSbiCK3mOLxDzsHiyTQaci/oVLJOG2RqNASN36bx2UalcBVxBF7vRzjUa3d7B+F1DqskpIQRS1X926rbEwuy+sV2h1XQVUIIrafY1JuvfCqqFVvf5hzy7OZLeCKACfPAxbe/dA7ZlGaYTTZibStoMT04vPIZTh1ueq6fNncLEogD2ILDs1pvwGRXEj+xheRU0AOYgMO54bUyIo+qQR9Tt4dQtwlN0DiOyq48aWt1CUN7Id3MqbAN4HkVlZY8wJil41ske4VRiOGEQBfNtZk0LRvpNFcCuyewBEARzPnTF9DkWnTnaAW/XQ/WdNBSKbbnFnTgxFu052hF9J9989gMimfWfOcIaipxf+YWUBUtz+PRBZdOgtukDP+73sCL9OfQCfgcigW9Jb9AQ9dS87wK+oD+AEIoP2rUknKCpbUQS/fm8DSEFkz6G1KYWipBU9wjH5Qxb1FYjMuSWjTTkU5aPoWzgW4lBLEJmzH22aYigqRtEejuVjADWIjPntebSqhp63o+gLOJaOAUQgMqYazfoMeo6jpM/h2ClEjrsDkS1vB7sK6PnoPEiSuz/XAkSm1A+DXRkUJYOgL+FYNASQgsiUdJgGs2LdlYsu8Ou3IYAcRJYcnwe7puHD/7dmegu/PgxxAAmILKkm0yLouUyiFI6dp/8uhiFEj7NtJyiKZ8FQwbF4DgCGEMWzbRkUZbOkhGPJHMAFZhB9O9u2xlC0m0VH+JXPATzBCqJbvBi3XqDn90VUwK9qCeAtrCAqFuvmz6HoKv6XCfzKQ+z/tzCCqC4X8zIo2i+i3+88wzrBCKJ0MW+LoeionOH5z7C2PWwg+v15tW+7QFG8SnK4Va0BpLCBaL86sO2gKF0lzzW8ytcAMphA9Hu5epBB0XEVne47w8pBJtB3qwfvYmi6roLletcf1lLBAqK63Fx4d4SiYhMd4FSyBVDBAqIfNx/WH3UHD5vkCzh1DREuKhhAdCs3J67QlG8St23364vJsIi+3dz4iz37wJnUiIIAXLeZO8wvpIlNN2lzgJFRWokD2ibDYJ/MRwCvu5d+4/qOQKiXAjgU/bnm94+Q6f4yHRaRrsX4sPODuD8gUlhboEC0v1Mth4JLb/WaPz5CorK2oFUg2p+q5XC7RCrNeotVQqDCg2phBVFRS5LBpS8v2mJFrxJYRB9bSS5wqTTtmrCAPN9aGxSI9lbdW0H6sIRL59f8bW+tBY0C0d7iVpYYLj1Mu+obxDm/SIdFpFpRGrX7gCxw73610t1eQbSzoJEmgEulaVadIY1ubLiCaGdfGmlucOrWrOpPEMY0FgwX7IxIN9JoOHVIm1X3x/+yjU6wL6JjI88RTmXNql5BlKix4ox9EX3p5TnDLdWv+wJJPvRWfMS+iG69PKaCU0XYrwpPECTprbhhZ0TnXp7Yg7bTHCGH7q14w96Irr04Gm4ddL+qTgOIYbwoFEQWVGoUJ4db+biu1yWECEY7MuyOqNSjMO7v6x/HDVQFGb75UieILAjSUZiwhFuVfqXEOo92FCDyQHHvhLnBsSLsVo2DKiGB7uwoQeSDo7TESuHah24DGYlVhZ0dIPLD0QyidBlcS4YtdAnv5ZaeuQGRJ3JhiaXhWqWHLdICvrsNdtwPIPJEFA6inOBaYYZ1XWNO8JwarJhnHYDIE5EZJFG+ZHg33OA3M9hiMhB5IjezJBGc+zBvslxKeCyfLXrDTyBiYim493HeJo3gry+zTWcQeeL46SnID7iXPDc6H+Ar/bQqARET69+74Be4PjfSOfz0sP7cKxD5IUgnKZapgHuVmrZKHvBRPNm1/HWtQOSHh57E+Aq/Esu8wUPXybblCiJPlGoSI/IrsZa/dYz/Ish/VLDsYCb7EhB5orpMUmh41mMtUxpX+DlVrJdlCZMAVkWTC2cQ+eK3aREiw69w+LpsNT3/Ycc+jKW1oTAMf324ANfg/KdEEIhFsBGcdkYz9HjHQsAGh56cc9xrSRxmz1OCwntARhxa3E4Xwjz8IIrhUmO8OIAxKgpplkHAAee3Xqbv4jbti9L8IvoADglas4IxD55EZhkKhPHC3ODB2Dfv7fGf7ZrfL3cNd2LjSXQEY1QchVmElxphrKW5hbUmP+zxH7SFMl+Y39vDmdT4IlowRsVbyi5ChUDeKe1tjLWqyVr8k92LXFpj/+gJXNGR9cXUYIwMndolkB8gkH1ub/ZgrUoPT/b4M7091MLa3tg/W8OVjOSwYMyDRFr6TI5gKvtYkUoPRRIfv7d9krxIc/Hrl9WfxXClth7JLRijYyvsAmQI5klp3eitNfZvyRaOtNL6JFowRsc+7+kLeWs+CLIgKVxJeq9sDcYoqXr6Vgho1XtX7uGK976uwRglcdlTJ3cIaKt89+oIV469Z/bWuDLGv4U5QtKV7D1SHZxJe+9qMEbLQY7EJQhql4++yJWGM3s5+peBMVqOaqQt6hBWJkYv1BEOVWMAogVjtOhqJG3IEdraQ7LkC7ikyzGEFRijJhYjaQeEpgvXPag7OJWMQcgOjFGjV+NAVy93mCVZgzMqhmNqCGKswRg9WzEQpjADXbiKQpnAtSdDKDEYo0dXcqBqnF5gFnHtYFFEoeGcIj0s/GNslw9kyR3m0a3K4X9Ra3iQDeMQSgbGSErKiahBacxEP0mj6ZFkGsMLNYWjwBhNbTpRlWI+OntUs1TRwo9sCmkNxoh6N5+ISjAnnTXqtlpVO3ijppAEGCMrExNJ0Q4za7NGjNN/UNZJB4/WU1gZGCNLH8rriZ6r0Jhfuy2afPPV9Ven35EqPWzhmTgFxa9YjLa22pwISkHFfpsVVZorJUQUnX5Qqrw+xB0CKE6hbcEYZftGnuhJwIA2/DSpwRhtHcFkySMY0lN4HRgjbr+KvrqSchZ73pbjdQYNyGOsPZRXWpTGvfvsOoNSgzH69EFcSalx55LrLDIwtgQ6UV9dCKlw19ryMosajC3ENpWXMxlr3LPmPIsv5R6MLcX+Y3GmQm5xv7bnuRzA2IJk+ZmGb0SHe/X257OtusK37NqFlUQ3DIVh1TfM8Jh2PXBOCn2M/SRFZC1bvl8P+o0AVvGDrDJB6e7nhrDi4xGAZbzrtmTX1JeInPQsGcVkH4BVcuZPVqbIQSovGV3ISgDFNS+Z7RW5JywZNaVPlgLw4uxQcrqRc1YlryPZCyDahZf6Pw2LMiHH+OeGVbsnuwH49/ByYCrWidySNcwOiqwHoFbBLeeoVkguCRtu9YoAZFDF+nq7nButEnLHruF3JQBR1Odca7QhV3iPml2TkTAAx1qj9qbICVFeG0DeJRbABcX6/91qE7QrEgbgqXeGnPhBeqrNcCVpADatRt1w8Um6Y2uG7kbSAPgPvVO09Ui23aE1xJbEAQj0Bmt4rEiy56M1xND6JA2Aylu9DneS63NuzfElcQBWnV59dyWp/LwzRxuTPAC3TreEZIounUluJA/A59Fp1mQ+evXnmpwEAgg63drtE736a48vSQSQDZqNQxrL69VglLwgkQC8dNCtGzZKWq+mwSCZT0IBxIN203z5kBz+ezBKSGIBKI7jzPRXlyzo1WNHggEU6cSgSxSJ4OWTQcQfBwFOPQchN8P/PHqDpDEJB6BylmC1EqbrnvbmGN4FAYi3Ypqv3vrzS9wPvTHSqyIAB4QjE8tviJPRIJlHAE5Q75FLEpGtomw0R74mAFd46chkeRzJTkU+GiM9RQTgjuPIZs4+ZKEgHY2RfAjAKa+Zj4W3xdFtNsarIADH+D8zo/eTrOK9kSsATt+ZVRiRPda/sxnSxCMAJ4Uzq99YkR18U46DP9eIAByl3guv/Es22P0sRsjuigDc5aXsM1hYcNu+mCCPfQJw23phl/zLzl1lu8qDYQD+5vdr3SAleGiPy0w3ISHlTGW7myBJ13of7Jq4b9C8elU0XhEABCfWpWOHiyzmQACF3poA4EwmSvtS39Uiy0tLq3g4/pcRAFwp0tIB3C/IPbvIZikuAm+VEQDctSudwIOC3FLkQ/4+v/omIsyD8ejzhgDgCbPSDXy+InewMS8HtCDKGGMEAK/IKydIWQlXFhplXlINKSQAeBu2rxxxUjmxlDsbDRwivCAAeKOYV+7gQWy/dVVWg9oSALzZonKKGDGbxVVZDUxkBABvN5MOqaTk8x3ZsJklcnA8JgB4j0C6JvFjGtjnOZcWbAkA3iULpXvEdk2DYV4kbSgFAcA7sUi6aKhdv5+DVNrB1wQA71Uk2kHK6CTYZdSrlb/XtqgRAcD7febaVWm4/ZxRP9azSOtKaktC+ggAWGhXSa1lmnsxdW31VWilLUo29CEA4GmHSa11knufGXVk89c8UUrb9Zk+CAC+qCMQ/Wx/7EqxCCJVG2WZ/EIfBgCBOg5c/Nz+WGf0AcWPr2GiTN0YZZ3I6OMAIFfHwNRaK6UO+9wffV4zepti5wUiVVqrWjkhLagFAMhCdVTqRinFozD3t7938SajR7Ii3i22fi5SpUxjjHLHD2oFADJhjk1z+NPUjbmQpvt9JK5F+/RgztXN2WXcor9QSwDAhDlidWNM0zT1xdUcjMNCag0ARgb6p/cbag0AQtM/4CsCgNYYN9C7w4gAoL3fdf/AJwDoQFj3DQ4hAUAHGK/7BhE7Zd8ubCS5ogCKvhQt3N1hpmoGY6Z2Mw/F4CA+SCWdE8T9+ALIYPRvaTz+CiCH63lh3LwFkEUzL4xpAFnczwujH0Ae5/Oi+G8cQCbPs6K4DSCXx1lBLF4uA8jkflYSd2cB5HI+o6DmNbIBnheU85CzV0CzoJRZ5z7yAc4WFNP5GRkBowWFzDL3CuivKCR3r4DnFS3pFdCsaEevgMsVLekV8HNLCQX+MwDTZX5sm1+RHdBb5keReRzgeZkbm5ezAAp42eTG7WUAJTxu8mL7/BRACWebzOgFUMb9Jit2vwVQyNs6JzqjAEqZrDOiuQ+gmP46HwZnAZQzXufCdvwUQEF/7jJhOAmgqMEuC/bNPwGU9bLLAtdXUF6zy4F+AMV19qTrvAUgWG3gOAiC1RbDfgBVDPckOXgdhGoO+wMpmssA6ng6kOTrJYBKLg+kESwQrLb4Fiyo5uxEmr8CqOTyRJLdIIBKnk6kESyoZ3giyXMAtXSOJBkHIFjt8HEVQC3NkSTTAASrJboB1PLyQZJfAdQy+CDJZQC1jD9I0Qmgmt4HCY6DAKqZvJNiHEA10y9STAKo5u2LFN0Aqrn/IsVlANVcfpLg/3btA8V1GIyi8F1nAqYZBB5I3C23rHha6uu995LYkh3Ot4jD/ZFaAXDI3uJsj7kAONTc4nyFADhUE6wLhALgUPyIs1kBcKl8dCuNyzp9vA63tQC41N071XeSTJbb+2tQCIBLwb1Dt3Wgj66jWQs5BaB/cMaW+lYXJ+l2+zBfvdwCUD+4kkT6kVmt24e5eqwEwK3Yw7z6TlTm/cMsrQTArezBiXqpP1iWeTu7gWWNALgVbR3oM/3VMlsndjsjtQC4Nn4k0irQPwqLvEm385DJNQDJdmRJqP8TllXSb6fOw0UIIN6O6aHPdJZgVUw7W7mcA7Daj8gWRpcwi5uiqlu7/WI/FZ2cA2DS/VjSdaBhmGhVxlWetH26nwQ/v0YBJGPlKl9qBCZadKuyLOJ4XeX19/Iqtns3YnkAYD1SriL5UO6dSJfyAMBqNzy3ufpOvnOhFgAfjN0NzK6X8iZodw6sBMCLejeotjDyKbS70bUC4EexG1BSyrdsN7pCAPyIDkOxVagJiA8js4EAeNIeBpGURtNQH8YVC8CcF0m/XmgyTMPAulZAeLiQzTOjKQnaw4gqAfCnPV7A5jeanKg/joZPo4BX8fFMhz6/MZqicLxi5QLgUXQ8R5oUC01WaI/jSCMB8Ck5/q82z4wmrRupWJUAeFUe/8Omrcql/PB/FdpAALwKNsd/09dxZzQTixGKdYoFwLP876lKqqIL5Jf/t8LeCIBn3R8OwCaPy1WgOVo2x4GVAuBds3nyhe37tknyKi6ycKlZM/VpUK2mAYAJgsDoylSnIXUaDwCUm6eDyTUmAOj6pwPpA40KAIL66TBKjQ0AiiHOwmeJxgcAXfv0YptIAOCAWV88sAoBgBtd++wijQDAFbN+dr7nNhIAzGNkZQIAp8r+2XlqAYBjJt48O0MfCACcW9TP/tumkw8A0P13sgoBwCyS9bwWAMwjWa0RAPhN1ub5v3hhI3kGAMu4f/4PbuQfAJii/evAigUA0xBW9vmf1AKAyTBlsnnxO40RAExJUNa/blYbCAAm2Cz74kf9UgAwRWa1bl98yy4EAJMVZFX7+TrcrAQA02YWZdW8q1amOQAAE3byBQCAt6VFzzbWCoTsAAAAAElFTkSuQmCC;" vertex="1" parent="1">
          <mxGeometry x="-400" y="810" width="140" height="76.42" as="geometry" />
        </mxCell>
        <mxCell id="IFC9j8ypwOI6I-tvutlA-65" value="" style="shape=flexArrow;endArrow=classic;html=1;rounded=0;" edge="1" parent="1">
          <mxGeometry width="50" height="50" relative="1" as="geometry">
            <mxPoint x="-180" y="850" as="sourcePoint" />
            <mxPoint x="230" y="850" as="targetPoint" />
          </mxGeometry>
        </mxCell>
        <mxCell id="IFC9j8ypwOI6I-tvutlA-66" value="" style="shape=flexArrow;endArrow=classic;html=1;rounded=0;entryX=0.007;entryY=0.441;entryDx=0;entryDy=0;entryPerimeter=0;" edge="1" parent="1" target="IFC9j8ypwOI6I-tvutlA-43">
          <mxGeometry width="50" height="50" relative="1" as="geometry">
            <mxPoint x="-190" y="390" as="sourcePoint" />
            <mxPoint x="-140" y="340" as="targetPoint" />
          </mxGeometry>
        </mxCell>
        <mxCell id="IFC9j8ypwOI6I-tvutlA-67" value="&lt;b&gt;Publish&amp;nbsp;&lt;/b&gt;" style="text;html=1;align=center;verticalAlign=middle;whiteSpace=wrap;rounded=0;" vertex="1" parent="1">
          <mxGeometry x="440" y="415.65" width="100" height="34.35" as="geometry" />
        </mxCell>
        <mxCell id="IFC9j8ypwOI6I-tvutlA-68" value="&lt;b&gt;Subscribe&amp;nbsp;&lt;/b&gt;" style="text;html=1;align=center;verticalAlign=middle;whiteSpace=wrap;rounded=0;" vertex="1" parent="1">
          <mxGeometry x="300" y="560" width="100" height="34.35" as="geometry" />
        </mxCell>
        <mxCell id="IFC9j8ypwOI6I-tvutlA-69" value="&lt;b&gt;Wirte data&lt;/b&gt;" style="text;html=1;align=center;verticalAlign=middle;whiteSpace=wrap;rounded=0;" vertex="1" parent="1">
          <mxGeometry x="300" y="710" width="100" height="34.35" as="geometry" />
        </mxCell>
        <mxCell id="IFC9j8ypwOI6I-tvutlA-70" value="&lt;b&gt;Read Data&lt;/b&gt;" style="text;html=1;align=center;verticalAlign=middle;whiteSpace=wrap;rounded=0;" vertex="1" parent="1">
          <mxGeometry x="-90" y="790" width="100" height="34.35" as="geometry" />
        </mxCell>
        <mxCell id="IFC9j8ypwOI6I-tvutlA-71" value="&lt;b&gt;Subscribe&amp;nbsp;&lt;/b&gt;" style="text;html=1;align=center;verticalAlign=middle;whiteSpace=wrap;rounded=0;" vertex="1" parent="1">
          <mxGeometry x="-100" y="415.65" width="100" height="34.35" as="geometry" />
        </mxCell>
        <mxCell id="IFC9j8ypwOI6I-tvutlA-72" value="&lt;b&gt;Subscribe&amp;nbsp;&lt;/b&gt;" style="text;html=1;align=center;verticalAlign=middle;whiteSpace=wrap;rounded=0;" vertex="1" parent="1">
          <mxGeometry x="190" y="800" width="100" height="34.35" as="geometry" />
        </mxCell>
        <mxCell id="IFC9j8ypwOI6I-tvutlA-73" value="&lt;b&gt;Local traning&lt;/b&gt;" style="text;html=1;align=center;verticalAlign=middle;whiteSpace=wrap;rounded=0;" vertex="1" parent="1">
          <mxGeometry x="-290" y="460" width="100" height="34.35" as="geometry" />
        </mxCell>
        <mxCell id="IFC9j8ypwOI6I-tvutlA-74" value="&lt;b&gt;Grafana Dashbord&amp;nbsp;&lt;/b&gt;" style="text;html=1;align=center;verticalAlign=middle;whiteSpace=wrap;rounded=0;" vertex="1" parent="1">
          <mxGeometry x="-324" y="930" width="150" as="geometry" />
        </mxCell>
      </root>
    </mxGraphModel>
  </diagram>
</mxfile>
